<svg width="96" height="96" viewBox="0 0 480 480" fill="none" xmlns="http://www.w3.org/2000/svg">
<path d="M408.4 235.8H444.4V451C444.4 474.467 431.867 486.2 406.8 486.2H340V457.8H396.4C401.2 457.8 404.4 457 406 455.4C407.6 453.8 408.4 450.733 408.4 446.2V413C404.933 423.4 396.667 428.6 383.6 428.6H369.2C345.2 428.6 333.2 416.733 333.2 393V271.4C333.2 247.667 345.2 235.8 369.2 235.8H383.6C396.667 235.8 404.933 241 408.4 251.4V235.8ZM381.2 399.4H395.2C400 399.4 403.333 398.333 405.2 396.2C407.333 394.067 408.4 390.467 408.4 385.4V279C408.4 273.933 407.333 270.333 405.2 268.2C403.333 266.067 400 265 395.2 265H381.2C376.4 265 373.2 265.8 371.6 267.4C370 268.733 369.2 271.8 369.2 276.6V387.8C369.2 392.333 370 395.4 371.6 397C373.2 398.6 376.4 399.4 381.2 399.4Z" fill="#A3418C"/>
<path d="M319 237.5H277.6V194.3C277.6 188.9 276.7 185.45 274.9 183.95C273.4 182.15 269.95 181.25 264.55 181.25H241.6C236.2 181.25 232.6 182.15 230.8 183.95C229 185.45 228.1 188.9 228.1 194.3V386.45C228.1 391.85 229 395.45 230.8 397.25C232.6 398.75 236.2 399.5 241.6 399.5H264.55C269.95 399.5 273.4 398.75 274.9 397.25C276.7 395.45 277.6 391.85 277.6 386.45V343.7H319V391.4C319 418.1 304.9 431.45 276.7 431.45H229C201.1 431.45 187.15 418.1 187.15 391.4V188.9C187.15 162.5 201.1 149.3 229 149.3H276.7C304.9 149.3 319 162.5 319 188.9V237.5Z" fill="#41A389"/>
</svg>
